<svg width="182" height="182" viewBox="0 0 182 182" fill="none" xmlns="http://www.w3.org/2000/svg">
<circle cx="15" cy="15" r="15" transform="matrix(-1 0 0 1 106 1)" fill="white"/>
<circle cx="7" cy="7" r="7" transform="matrix(-1 0 0 1 98 159)" fill="white"/>
<circle cx="11" cy="11" r="11" transform="matrix(-1 0 0 1 27 80)" fill="white"/>
<circle cx="13" cy="13" r="13" transform="matrix(-1 0 0 1 51 25)" fill="white"/>
<circle cx="9" cy="9" r="9" transform="matrix(-1 0 0 1 47 135)" fill="white"/>
<circle cx="5" cy="5" r="5" transform="matrix(-1 0 0 1 149 139)" fill="white"/>
<circle cx="1" cy="1" r="1" transform="matrix(-1 0 0 1 145 37)" fill="white"/>
<circle cx="3" cy="3" r="3" transform="matrix(-1 0 0 1 169 88)" fill="white"/>
</svg>
