<?xml version="1.0" encoding="UTF-8"?>
<!--Generator: Apple Native CoreSVG 175.5-->
<!DOCTYPE svg
PUBLIC "-//W3C//DTD SVG 1.1//EN"
       "http://www.w3.org/Graphics/SVG/1.1/DTD/svg11.dtd">
<svg version="1.1" xmlns="http://www.w3.org/2000/svg" xmlns:xlink="http://www.w3.org/1999/xlink" width="71.6518" height="59.7949">
 <g>
  <rect height="59.7949" opacity="0" width="71.6518" x="0" y="0"/>
  <path d="M0.58989 29.9707C-0.552688 31.582-0.025344 33.0176 2.08403 33.0176L6.127 33.0176C7.70903 47.9297 20.5704 59.7656 35.834 59.7656C44.7696 59.7656 52.8555 55.6934 58.3633 49.3652C59.4473 48.1055 59.3008 46.5234 58.1582 45.7031C57.0157 44.8828 55.6094 45.1758 54.6719 46.2598C50.1309 51.5039 43.3926 54.7852 35.834 54.7852C23.0606 54.7852 12.6602 45.3223 11.1661 33.0176L15.5313 33.0176C17.6114 33.0176 18.1387 31.582 17.0254 30L10.4629 20.6543C9.52544 19.3066 8.11919 19.2773 7.15239 20.6543ZM13.334 10.4004C12.2207 11.6602 12.3672 13.2129 13.5391 14.0332C14.6817 14.8535 16.0586 14.5898 17.0254 13.5059C21.5957 8.29102 28.334 4.98047 35.834 4.98047C48.5782 4.98047 58.9786 14.4434 60.502 26.7773L56.1368 26.7773C54.0567 26.7773 53.5293 28.1836 54.6426 29.7949L61.2051 39.1406C62.1426 40.4883 63.5489 40.5176 64.5157 39.1406L71.0489 29.8242C72.2207 28.1836 71.6641 26.7773 69.5547 26.7773L65.5411 26.7773C63.9297 11.8652 51.0977 0 35.834 0C26.8985 0 18.8418 4.04297 13.334 10.4004Z" fill="#ffffff" fill-opacity="0.85"/>
 </g>
</svg>
