<?xml version="1.0" encoding="UTF-8"?>
<!--Generator: Apple Native CoreSVG 175.5-->
<!DOCTYPE svg
PUBLIC "-//W3C//DTD SVG 1.1//EN"
       "http://www.w3.org/Graphics/SVG/1.1/DTD/svg11.dtd">
<svg version="1.1" xmlns="http://www.w3.org/2000/svg" xmlns:xlink="http://www.w3.org/1999/xlink" width="59.7656" height="59.7949">
 <g>
  <rect height="59.7949" opacity="0" width="59.7656" x="0" y="0"/>
  <path d="M29.8828 59.7656C46.2305 59.7656 59.7656 46.2012 59.7656 29.8828C59.7656 13.5352 46.2012 0 29.8535 0C13.5352 0 0 13.5352 0 29.8828C0 46.2012 13.5645 59.7656 29.8828 59.7656ZM35.6836 44.3848C34.9219 45.1172 33.3984 45.0586 32.5781 44.2969L20.3906 32.7832C18.7207 31.2598 18.7207 28.5645 20.3906 27.041L32.5781 15.5273C33.4863 14.6777 34.834 14.6484 35.6543 15.4395C36.5625 16.2891 36.5918 17.7539 35.7129 18.5742L23.6719 29.8828L35.7129 41.25C36.5625 42.0703 36.5918 43.4766 35.6836 44.3848Z" fill="#ffffff" fill-opacity="0.85"/>
 </g>
</svg>
