<?xml version="1.0" encoding="UTF-8"?>
<!--Generator: Apple Native CoreSVG 175.5-->
<!DOCTYPE svg
PUBLIC "-//W3C//DTD SVG 1.1//EN"
       "http://www.w3.org/Graphics/SVG/1.1/DTD/svg11.dtd">
<svg version="1.1" xmlns="http://www.w3.org/2000/svg" xmlns:xlink="http://www.w3.org/1999/xlink" width="59.7656" height="59.7949">
 <g>
  <rect height="59.7949" opacity="0" width="59.7656" x="0" y="0"/>
  <path d="M29.8828 59.7656C46.2305 59.7656 59.7656 46.2012 59.7656 29.8828C59.7656 13.5352 46.2012 0 29.8535 0C13.5352 0 0 13.5352 0 29.8828C0 46.2012 13.5645 59.7656 29.8828 59.7656ZM10.957 27.1289C10.957 22.002 14.6191 18.6621 20.2441 18.6621L31.7871 18.6621L31.7871 14.9121C31.7871 13.916 32.4316 13.2715 33.4277 13.2715C33.8379 13.2715 34.3359 13.4473 34.6875 13.7402L41.5137 19.4531C42.3633 20.1562 42.3633 21.2402 41.5137 21.9434L34.6875 27.627C34.3359 27.9199 33.8379 28.0664 33.4277 28.0664C32.4316 28.0664 31.7871 27.4512 31.7871 26.3965L31.7871 22.6758L19.9219 22.6758C16.9922 22.6758 15 24.5215 15 27.334L15 29.0039C15 30.0879 14.1211 30.9961 12.9492 30.9961C11.8652 30.9961 10.957 30.0879 10.957 29.0039ZM48.8379 32.7246C48.8379 37.8809 45.1758 41.2207 39.5508 41.2207L28.0078 41.2207L28.0078 44.9707C28.0078 45.9961 27.3926 46.6406 26.3672 46.6406C25.957 46.6406 25.4883 46.4648 25.1367 46.1719L18.2812 40.459C17.4316 39.7559 17.4316 38.6426 18.2812 37.9395L25.1367 32.2852C25.459 32.0215 25.957 31.8457 26.3672 31.8457C27.3926 31.8457 28.0078 32.4609 28.0078 33.4863L28.0078 37.207L39.873 37.207C42.8027 37.207 44.7949 35.3613 44.7949 32.5195L44.7949 30.8789C44.7949 29.7363 45.6445 28.8867 46.8457 28.8867C47.9883 28.8867 48.8379 29.7363 48.8379 30.8789Z" fill="#ffffff" fill-opacity="0.85"/>
 </g>
</svg>
